<?xml version="1.0" encoding="utf-8"?>
<!-- Generator: Adobe Illustrator 17.0.0, SVG Export Plug-In . SVG Version: 6.00 Build 0)  -->
<!DOCTYPE svg PUBLIC "-//W3C//DTD SVG 1.1//EN" "http://www.w3.org/Graphics/SVG/1.1/DTD/svg11.dtd">
<svg version="1.1" id="artwork" xmlns="http://www.w3.org/2000/svg" xmlns:xlink="http://www.w3.org/1999/xlink" x="0px" y="0px"
	 width="512px" height="512px" viewBox="0 0 512 512" enable-background="new 0 0 512 512" xml:space="preserve">
<path fill="#13A1E3" d="M376,244c-72.902,0-132,59.098-132,132s59.098,132,132,132s132-59.098,132-132
	C507.915,303.134,448.866,244.085,376,244z M440.922,344.031l-72,80c-4.444,4.926-12.04,5.316-16.966,0.871
	c-0.15-0.136-0.297-0.275-0.441-0.418l-40-40c-4.686-4.686-4.686-12.283,0-16.969s12.283-4.686,16.969,0l0,0l31.055,31.055
	l63.539-70.602c4.436-4.927,12.026-5.326,16.953-0.891S445.357,339.104,440.922,344.031L440.922,344.031z"/>
<path d="M368,60h-60V48c-0.002-6.627-5.373-11.998-12-12h-53.664c-6.63-23.382-30.959-36.961-54.341-30.331
	C173.308,9.833,161.829,21.313,157.664,36H104c-6.627,0-12,5.373-12,12v12H32C16.544,60.019,4.019,72.544,4,88v392
	c0.019,15.456,12.544,27.981,28,28h232c6.627,0,12-5.373,12-12s-5.373-12-12-12H32c-2.208-0.003-3.997-1.792-4-4V88
	c0.003-2.208,1.792-3.997,4-4h60v12c0,6.627,5.373,12,12,12h192c6.627-0.002,11.998-5.373,12-12V84h60c2.207,0.004,3.996,1.793,4,4
	v120c0,6.627,5.373,12,12,12s12-5.373,12-12V88C395.981,72.544,383.456,60.019,368,60z M284,84H116V60h52c6.627,0,12-5.373,12-12
	c0-11.046,8.954-20,20-20s20,8.954,20,20c0,6.627,5.373,12,12,12h52V84z"/>
<path d="M104,132c-6.627,0-12,5.373-12,12v28H64c-6.627,0-12,5.373-12,12s5.373,12,12,12h28v28c0,6.627,5.373,12,12,12
	s12-5.373,12-12v-28h28c6.627,0,12-5.373,12-12s-5.373-12-12-12h-28v-28C116,137.373,110.627,132,104,132z"/>
<path d="M336,148H200c-6.627,0-12,5.373-12,12s5.373,12,12,12h136c6.627,0,12-5.373,12-12S342.627,148,336,148z"/>
<path d="M336,196H200c-6.627,0-12,5.373-12,12s5.373,12,12,12h136c6.627,0,12-5.373,12-12S342.627,196,336,196z"/>
<path d="M252,280c0-6.627-5.373-12-12-12H64c-6.627,0-12,5.373-12,12s5.373,12,12,12h176C246.627,292,252,286.627,252,280z"/>
<path d="M64,348h152c6.627,0,12-5.373,12-12s-5.373-12-12-12H64c-6.627,0-12,5.373-12,12S57.373,348,64,348z"/>
<path d="M64,404h144c6.627,0,12-5.373,12-12s-5.373-12-12-12H64c-6.627,0-12,5.373-12,12S57.373,404,64,404z"/>
<path d="M64,460h160c6.627,0,12-5.373,12-12s-5.373-12-12-12H64c-6.627,0-12,5.373-12,12S57.373,460,64,460z"/>
</svg>
