<?xml version="1.0" encoding="utf-8"?>
<!-- Generator: Adobe Illustrator 17.0.0, SVG Export Plug-In . SVG Version: 6.00 Build 0)  -->
<!DOCTYPE svg PUBLIC "-//W3C//DTD SVG 1.1//EN" "http://www.w3.org/Graphics/SVG/1.1/DTD/svg11.dtd">
<svg version="1.1" id="Слой_1" xmlns="http://www.w3.org/2000/svg" xmlns:xlink="http://www.w3.org/1999/xlink" x="0px" y="0px"
	 width="16382.84px" height="16382.84px" viewBox="0 0 16382.84 16382.84" enable-background="new 0 0 16382.84 16382.84"
	 xml:space="preserve">
<g>
	<g>
		<path fill="#010303" d="M10700.442,1500.693H5682.397c-2309.137,0-4181.705,1872.568-4181.705,4181.705v5018.045
			c0,2309.138,1872.568,4181.705,4181.705,4181.705h5018.045c2309.138,0,4181.705-1872.567,4181.705-4181.705V5682.397
			C14882.147,3373.26,13009.58,1500.693,10700.442,1500.693z M13627.636,10700.442c0,1614.139-1313.055,2927.193-2927.193,2927.193
			H5682.397c-1614.138,0-2927.193-1313.055-2927.193-2927.193V5682.397c0-1614.138,1313.055-2927.193,2927.193-2927.193h5018.045
			c1614.139,0,2927.193,1313.055,2927.193,2927.193V10700.442z"/>
	</g>
</g>
<g>
	<g>
		<path fill="#010303" d="M8191.42,4846.056c-1847.477,0-3345.364,1497.887-3345.364,3345.364s1497.887,3345.363,3345.364,3345.363
			s3345.363-1497.887,3345.363-3345.363S10038.896,4846.056,8191.42,4846.056z M8191.42,10282.272
			c-1152.478,0-2090.853-938.375-2090.853-2090.853c0-1153.314,938.375-2090.853,2090.853-2090.853
			s2090.853,937.539,2090.853,2090.853C10282.272,9343.897,9343.897,10282.272,8191.42,10282.272z"/>
	</g>
</g>
<g>
	<g>
		<circle fill="#010303" cx="11787.687" cy="4595.153" r="445.77"/>
	</g>
</g>
</svg>
