<?xml version="1.0" encoding="utf-8"?>
<!-- Generator: Adobe Illustrator 17.0.0, SVG Export Plug-In . SVG Version: 6.00 Build 0)  -->
<!DOCTYPE svg PUBLIC "-//W3C//DTD SVG 1.1//EN" "http://www.w3.org/Graphics/SVG/1.1/DTD/svg11.dtd">
<svg version="1.1" id="Layer_1" xmlns="http://www.w3.org/2000/svg" xmlns:xlink="http://www.w3.org/1999/xlink" x="0px" y="0px"
	 width="1920px" height="1080px" viewBox="0 0 1920 1080" enable-background="new 0 0 1920 1080" xml:space="preserve">
<g id="XMLID_822_">
	<path id="XMLID_823_" d="M1457.904,225.215c-38.985-46.342-110.961-65.246-248.421-65.246H710.506
		c-140.606,0-213.802,20.123-252.64,69.461C420,277.536,420,348.415,420,446.514V633.49c0,190.049,44.928,286.542,290.506,286.542
		h498.981c119.204,0,185.258-16.681,227.992-57.578C1481.302,820.514,1500,752.039,1500,633.49V446.514
		C1500,343.06,1497.07,271.763,1457.904,225.215z M1113.364,565.815l-226.584,118.42c-5.065,2.648-10.605,3.961-16.137,3.961
		c-6.264,0-12.514-1.686-18.05-5.038c-10.424-6.316-16.789-17.615-16.789-29.801V417.277c0-12.166,6.348-23.453,16.75-29.773
		c10.406-6.32,23.349-6.752,34.145-1.143l226.584,117.657c11.528,5.985,18.768,17.886,18.785,30.871
		C1132.082,547.884,1124.874,559.802,1113.364,565.815z"/>
</g>
</svg>
